# xmcd
# 
# Track frame offsets:
#     150
#     24387
#     41103
#     53763
#     70113
#     88318
#     108907
#     127706
#     142421
#     160102
#     174801
#     187183
#     204218
#     222445
#     240863
#     262586
# 
# Disc length: 3773
# 
# Revision: 0
# Processed by: cddbd v1.5.2PL0 Copyright (c) Steve Scherf et al.
# Submitted via: fre:ac v1.0.31
# 
DISCID=d40ebb10
DTITLE=Original Soundtrack - Lost Boys The Tribe
DYEAR=0
DGENRE=Soundtrack
TTITLE0=Cry Little Sister (Theme From The Lost Boys)
TTITLE1=Too Much, Too Young, Too Fast
TTITLE2=Don't Speak (I Came To Make A Bang)
TTITLE3=Summertime
TTITLE4=Burrito (Live Acoustic)
TTITLE5=Kingdom
TTITLE6=Long Way Down
TTITLE7=Wish You Were Here
TTITLE8=In My Blood
TTITLE9=Only To Haunt You
TTITLE10=For My Friends
TTITLE11=Knuckles
TTITLE12=Nine Thou (Grant Mohrman Superstars Remix)
TTITLE13=Day Fire
TTITLE14=Dizzy
TTITLE15=Suite
EXTD=
EXTT0=
EXTT1=
EXTT2=
EXTT3=
EXTT4=
EXTT5=
EXTT6=
EXTT7=
EXTT8=
EXTT9=
EXTT10=
EXTT11=
EXTT12=
EXTT13=
EXTT14=
EXTT15=
PLAYORDER=
